<svg width="192" height="54" viewBox="0 0 192 54" fill="none" xmlns="http://www.w3.org/2000/svg">
<circle cx="22.8462" cy="4.65382" r="4.65385" fill="black"/>
<circle cx="33" cy="4.65382" r="4.65385" fill="black"/>
<circle cx="41.8846" cy="8.88461" r="4.23077" fill="#FBD507"/>
<circle cx="48.2308" cy="15.2308" r="3.80769" fill="black"/>
<circle cx="13.1153" cy="8.88461" r="4.23077" fill="#FBD507"/>
<circle cx="7.19221" cy="15.2308" r="3.80769" fill="black"/>
<circle cx="4.23079" cy="22.8461" r="3.80769" fill="black"/>
<circle cx="4.23079" cy="22.8461" r="3.80769" fill="#FBD507"/>
<circle cx="3.38462" cy="30.8846" r="3.38462" fill="black"/>
<circle cx="5.92296" cy="38.0769" r="2.96154" fill="#FBD507"/>
<circle cx="9.51929" cy="44.2115" r="2.75" fill="black"/>
<circle cx="20.0962" cy="51.4038" r="1.90385" fill="black"/>
<circle cx="34.9038" cy="51.4038" r="1.90385" fill="black"/>
<circle cx="34.9038" cy="51.4038" r="1.90385" fill="black"/>
<circle cx="14.8078" cy="48.6538" r="2.11538" fill="#FBD507"/>
<circle cx="40.6154" cy="48.6538" r="2.11538" fill="#FBD507"/>
<circle cx="45.9038" cy="44.2115" r="2.75" fill="black"/>
<circle cx="49.9232" cy="38.0769" r="2.96154" fill="#FBD507"/>
<circle cx="51.6153" cy="30.8846" r="3.38462" fill="black"/>
<circle cx="51.1922" cy="22.8461" r="3.80769" fill="#FBD507"/>
<path d="M32.7101 20.7361H25.0632C25.1066 22.8133 26.1302 24.7374 28.6199 24.7374H31.6431C32.4434 24.7374 33.9549 26.9603 31.6431 27.9384H27.1083L34.3995 38.8752C35.9074 39.267 37.2976 39.2165 38.4008 37.8082L34.5774 31.3173C35.5559 30.549 36.1125 29.929 36.6225 29.0943C38.4008 25.2709 36.3151 21.8563 32.7101 20.7361Z" fill="#FBD507"/>
<path d="M34.1669 20.7361H26.52C26.5634 22.8133 27.587 24.7374 30.0767 24.7374H33.0999C33.9001 24.7374 35.4117 26.9603 33.0999 27.9384H28.5651L35.8563 38.8752C37.3642 39.267 38.7544 39.2165 39.8576 37.8082L36.0342 31.3173C37.0127 30.549 37.5693 29.929 38.0793 29.0943C39.8576 25.2709 37.7719 21.8563 34.1669 20.7361Z" fill="black"/>
<path d="M20.2069 20.914L15.3164 30.8727C16.6522 31.6108 17.2948 32.3496 18.1618 34.5183L20.4736 29.9835L24.5638 37.7193C25.8086 39.4087 27.7478 39.1044 29.5432 38.9642L20.2069 20.914Z" fill="black"/>
<path d="M73.9646 14.2747H78.7267L87.3525 38H82.9633L81.4381 33.7972H71.2701L69.7449 38H65.3557L73.9646 14.2747ZM72.7784 29.6622H79.9129L76.3372 19.884L72.7784 29.6622ZM136.593 25.1883L128.069 33.865H136.593V38H122.12V33.865L130.645 25.1883H122.12V21.0533H136.593V25.1883ZM186.085 21.0533H190.22V38H186.085L185.899 35.8986C185.435 36.6556 184.82 37.2713 184.052 37.7458C183.295 38.209 182.396 38.4406 181.357 38.4406C180.103 38.4406 178.928 38.2034 177.832 37.7289C176.736 37.2543 175.77 36.5991 174.934 35.763C174.109 34.927 173.46 33.961 172.985 32.8652C172.522 31.7693 172.291 30.5943 172.291 29.3403C172.291 28.1314 172.511 26.996 172.951 25.934C173.403 24.872 174.03 23.9399 174.833 23.1378C175.635 22.3356 176.561 21.7086 177.612 21.2567C178.662 20.8048 179.792 20.5788 181.001 20.5788C182.12 20.5788 183.119 20.8274 184.001 21.3245C184.893 21.8216 185.65 22.4543 186.272 23.2225L186.085 21.0533ZM181.255 34.4581C182.137 34.4581 182.916 34.2378 183.594 33.7972C184.272 33.3566 184.803 32.7635 185.187 32.0178C185.571 31.2609 185.763 30.4305 185.763 29.5267C185.763 28.6115 185.571 27.7812 185.187 27.0355C184.803 26.2786 184.266 25.6798 183.577 25.2392C182.899 24.7985 182.125 24.5782 181.255 24.5782C180.385 24.5782 179.589 24.8042 178.866 25.2561C178.154 25.6967 177.584 26.2899 177.154 27.0355C176.736 27.7812 176.527 28.6115 176.527 29.5267C176.527 30.4418 176.742 31.2722 177.171 32.0178C177.6 32.7635 178.171 33.3566 178.883 33.7972C179.606 34.2378 180.397 34.4581 181.255 34.4581Z" fill="black"/>
<path d="M90.7424 38L90.7254 21.0533H94.8604L94.8774 22.5616C95.4535 21.9515 96.1427 21.4714 96.9448 21.1211C97.747 20.7596 98.6113 20.5788 99.5377 20.5788C100.159 20.5788 100.78 20.6692 101.402 20.85L99.7749 25.0189C99.3456 24.8494 98.9163 24.7647 98.487 24.7647C97.8204 24.7647 97.2103 24.9285 96.6568 25.2561C96.1145 25.5724 95.6795 26.0074 95.3519 26.561C95.0355 27.1033 94.8774 27.7077 94.8774 28.3743V38H90.7424ZM115.286 21.0533H119.421V38H115.286L115.1 35.8986C114.637 36.6556 114.021 37.2713 113.253 37.7458C112.496 38.209 111.598 38.4406 110.558 38.4406C109.304 38.4406 108.129 38.2034 107.033 37.7289C105.938 37.2543 104.972 36.5991 104.136 35.763C103.311 34.927 102.661 33.961 102.187 32.8652C101.723 31.7693 101.492 30.5943 101.492 29.3403C101.492 28.1314 101.712 26.996 102.153 25.934C102.605 24.872 103.232 23.9399 104.034 23.1378C104.836 22.3356 105.762 21.7086 106.813 21.2567C107.864 20.8048 108.994 20.5788 110.202 20.5788C111.321 20.5788 112.321 20.8274 113.202 21.3245C114.095 21.8216 114.851 22.4543 115.473 23.2225L115.286 21.0533ZM110.457 34.4581C111.338 34.4581 112.117 34.2378 112.795 33.7972C113.473 33.3566 114.004 32.7635 114.388 32.0178C114.772 31.2609 114.964 30.4305 114.964 29.5267C114.964 28.6115 114.772 27.7812 114.388 27.0355C114.004 26.2786 113.467 25.6798 112.778 25.2392C112.1 24.7985 111.327 24.5782 110.457 24.5782C109.587 24.5782 108.79 24.8042 108.067 25.2561C107.355 25.6967 106.785 26.2899 106.356 27.0355C105.938 27.7812 105.729 28.6115 105.729 29.5267C105.729 30.4418 105.943 31.2722 106.372 32.0178C106.802 32.7635 107.372 33.3566 108.084 33.7972C108.807 34.2378 109.598 34.4581 110.457 34.4581ZM152.754 21.0533H156.889V38H152.754L152.568 35.8986C152.105 36.6556 151.489 37.2713 150.721 37.7458C149.964 38.209 149.066 38.4406 148.026 38.4406C146.772 38.4406 145.597 38.2034 144.501 37.7289C143.406 37.2543 142.44 36.5991 141.604 35.763C140.779 34.927 140.129 33.961 139.655 32.8652C139.191 31.7693 138.96 30.5943 138.96 29.3403C138.96 28.1314 139.18 26.996 139.621 25.934C140.073 24.872 140.7 23.9399 141.502 23.1378C142.304 22.3356 143.23 21.7086 144.281 21.2567C145.332 20.8048 146.462 20.5788 147.67 20.5788C148.789 20.5788 149.789 20.8274 150.67 21.3245C151.563 21.8216 152.319 22.4543 152.941 23.2225L152.754 21.0533ZM147.925 34.4581C148.806 34.4581 149.585 34.2378 150.263 33.7972C150.941 33.3566 151.472 32.7635 151.856 32.0178C152.24 31.2609 152.432 30.4305 152.432 29.5267C152.432 28.6115 152.24 27.7812 151.856 27.0355C151.472 26.2786 150.936 25.6798 150.246 25.2392C149.568 24.7985 148.795 24.5782 147.925 24.5782C147.055 24.5782 146.258 24.8042 145.535 25.2561C144.823 25.6967 144.253 26.2899 143.824 27.0355C143.406 27.7812 143.197 28.6115 143.197 29.5267C143.197 30.4418 143.411 31.2722 143.841 32.0178C144.27 32.7635 144.84 33.3566 145.552 33.7972C146.275 34.2378 147.066 34.4581 147.925 34.4581ZM160.283 38L160.266 21.0533H164.401L164.418 22.5616C164.994 21.9515 165.684 21.4714 166.486 21.1211C167.288 20.7596 168.152 20.5788 169.079 20.5788C169.7 20.5788 170.321 20.6692 170.943 20.85L169.316 25.0189C168.887 24.8494 168.457 24.7647 168.028 24.7647C167.361 24.7647 166.751 24.9285 166.198 25.2561C165.655 25.5724 165.22 26.0074 164.893 26.561C164.576 27.1033 164.418 27.7077 164.418 28.3743V38H160.283Z" fill="#FBD507"/>
</svg>
