<svg width="11" height="20" viewBox="0 0 11 20" fill="none" xmlns="http://www.w3.org/2000/svg">
<path fill-rule="evenodd" clip-rule="evenodd" d="M10.2823 0.82479C10.2127 0.75612 10.1299 0.701637 10.0388 0.664463C9.94768 0.627289 9.85 0.608154 9.75135 0.608154C9.65269 0.608154 9.55501 0.627289 9.46389 0.664463C9.37278 0.701637 9.29001 0.75612 9.22034 0.82479L0.220345 9.67347C0.150499 9.74196 0.0950851 9.82334 0.0572758 9.91292C0.0194664 10.0025 3.8147e-06 10.0985 3.8147e-06 10.1955C3.8147e-06 10.2925 0.0194664 10.3886 0.0572758 10.4782C0.0950851 10.5677 0.150499 10.6491 0.220345 10.7176L9.22034 19.5663C9.36117 19.7048 9.55218 19.7825 9.75135 19.7825C9.95051 19.7825 10.1415 19.7048 10.2823 19.5663C10.4232 19.4278 10.5023 19.24 10.5023 19.0442C10.5023 18.8484 10.4232 18.6606 10.2823 18.5221L1.81184 10.1955L10.2823 1.86893C10.3522 1.80044 10.4076 1.71907 10.4454 1.62948C10.4832 1.53989 10.5027 1.44385 10.5027 1.34686C10.5027 1.24987 10.4832 1.15383 10.4454 1.06425C10.4076 0.974659 10.3522 0.893288 10.2823 0.82479Z" fill="white"/>
</svg>
