<svg width="11" height="20" viewBox="0 0 11 20" fill="none" xmlns="http://www.w3.org/2000/svg">
<path fill-rule="evenodd" clip-rule="evenodd" d="M0.22034 0.220341C0.290009 0.150496 0.372772 0.0950816 0.46389 0.057272C0.555008 0.0194623 0.65269 0 0.75134 0C0.849991 0 0.947673 0.0194623 1.03879 0.057272C1.12991 0.0950816 1.21267 0.150496 1.28234 0.220341L10.2823 9.22034C10.3522 9.29001 10.4076 9.37277 10.4454 9.46389C10.4832 9.55501 10.5027 9.65269 10.5027 9.75134C10.5027 9.84999 10.4832 9.94767 10.4454 10.0388C10.4076 10.1299 10.3522 10.2127 10.2823 10.2823L1.28234 19.2823C1.14151 19.4232 0.950504 19.5023 0.75134 19.5023C0.552177 19.5023 0.36117 19.4232 0.22034 19.2823C0.0795103 19.1415 0.000392675 18.9505 0.000392675 18.7513C0.000392675 18.5522 0.0795103 18.3612 0.22034 18.2203L8.69084 9.75134L0.22034 1.28234C0.150495 1.21267 0.0950809 1.12991 0.0572712 1.03879C0.0194616 0.947674 0 0.849992 0 0.751341C0 0.65269 0.0194616 0.555008 0.0572712 0.46389C0.0950809 0.372773 0.150495 0.290009 0.22034 0.220341Z" fill="#DEDBDB"/>
</svg>
