<svg width="30" height="30" viewBox="0 0 30 30" fill="none" xmlns="http://www.w3.org/2000/svg">
<g clip-path="url(#clip0_277_203)">
<path d="M29.9998 14.5312C29.9998 6.50391 23.4958 0 15.4685 0C7.44116 0 0.937256 6.50391 0.937256 14.5312C0.937256 21.784 6.25112 27.7957 13.198 28.8867V18.7318H9.50659V14.5312H13.198V11.3297C13.198 7.68809 15.366 5.67656 18.6865 5.67656C20.2767 5.67656 21.9396 5.96016 21.9396 5.96016V9.53437H20.1068C18.3021 9.53437 17.739 10.6547 17.739 11.8037V14.5312H21.7691L21.1246 18.7318H17.739V28.8867C24.6859 27.7957 29.9998 21.784 29.9998 14.5312Z" fill="#242424"/>
</g>
<defs>
<clipPath id="clip0_277_203">
<rect width="30" height="30" fill="white"/>
</clipPath>
</defs>
</svg>
